# xmcd CD database file
#
# Track frame offsets:
#	150
#	48010
#	112432
#	162775
#
# Disc length: 2821 seconds
#
# Revision: 0
# Processed by: cddbd v1.5.2PL0 Copyright (c) Steve Scherf et al.
# Submitted via: CDex 1.51
#
DISCID=2d0b0304
DTITLE=George Benson - Li'l Darlin' (recorded live at the Casa Caribe)
DYEAR=1973
DGENRE=Jazz
TTITLE0=Witchcraft
TTITLE1=Love For Sale
TTITLE2=Lil Darlin'
TTITLE3=There Will Never Be Another You
EXTD=YEAR: 1973
EXTT0=
EXTT1=
EXTT2=
EXTT3=
PLAYORDER=
